<svg width="205" height="41" viewBox="0 0 205 41" fill="none" xmlns="http://www.w3.org/2000/svg"><path d="M30.73 18.193a5.295 5.295 0 00-1.58 4.307l-.027-.026a6.293 6.293 0 01-1.898 5.054 6.662 6.662 0 01-5.19 1.849l.027.026c-2.331-.211-4.548 1.024-5.543 3.087-.995 2.064-.554 4.514 1.102 6.125 1.657 1.611 4.172 2.038 6.29 1.068 2.12-.97 3.385-3.13 3.166-5.4l.029.026a6.293 6.293 0 011.898-5.055 6.662 6.662 0 015.19-1.848l-.029-.026c2.562.224 4.946-1.297 5.758-3.674.811-2.377-.163-4.985-2.353-6.3-2.19-1.313-5.02-.988-6.835.787h-.005z" fill="#5454D4"/><path d="M19.59 25.935l-.029-.026a5.57 5.57 0 004.425-1.536 5.258 5.258 0 001.58-4.308l.03.026a6.293 6.293 0 011.898-5.054 6.662 6.662 0 015.19-1.849l-.029-.026c2.331.213 4.55-1.02 5.546-3.084.996-2.063.557-4.514-1.099-6.126-1.656-1.612-4.172-2.04-6.29-1.07-2.12.97-3.386 3.13-3.167 5.4l-.027-.028a6.291 6.291 0 01-1.898 5.056 6.66 6.66 0 01-5.191 1.847l.027.028a5.57 5.57 0 00-4.425 1.536 5.258 5.258 0 00-1.58 4.308l-.028-.026a6.294 6.294 0 01-1.899 5.054 6.664 6.664 0 01-5.19 1.849l.028.026c-2.331-.213-4.55 1.02-5.546 3.084-.996 2.064-.557 4.514 1.1 6.126 1.655 1.612 4.171 2.04 6.29 1.07 2.119-.97 3.385-3.13 3.167-5.4l.028.026a6.293 6.293 0 011.898-5.054 6.663 6.663 0 015.19-1.849z" fill="#FF7143"/><path d="M9.469 22.984a5.29 5.29 0 001.578-4.308l.029.027a6.293 6.293 0 011.899-5.056 6.662 6.662 0 015.192-1.847l-.029-.026c2.33.212 4.548-1.021 5.544-3.084.995-2.063.556-4.512-1.1-6.124-1.654-1.611-4.17-2.04-6.288-1.07-2.118.97-3.384 3.129-3.166 5.398l-.027-.026a6.293 6.293 0 01-1.898 5.054 6.662 6.662 0 01-5.19 1.849l.026.026c-2.561-.224-4.945 1.298-5.756 3.675-.81 2.377.164 4.985 2.354 6.298 2.19 1.314 5.02.989 6.835-.786h-.003z" fill="#5454D4"/><path d="M56.248 8.316h4.485v21.255h-4.485V8.316z" fill="#19191B"/><path fill-rule="evenodd" clip-rule="evenodd" d="M68.142 15.142c-2.96 1.204-4.882 4.027-4.869 7.15a7.529 7.529 0 002.306 5.463 7.945 7.945 0 005.618 2.223c3.207 0 6.099-1.883 7.323-4.77 1.225-2.888.54-6.209-1.732-8.413-2.272-2.205-5.686-2.857-8.646-1.653zm2.991 3.894c1.887-.034 3.45 1.42 3.502 3.257a3.218 3.218 0 01-.945 2.455 3.401 3.401 0 01-2.493.987c-1.888 0-3.423-1.48-3.44-3.319-.018-1.838 1.489-3.346 3.376-3.38zm25.863 9.801V15.013l-4.366-.003v1.486a5.372 5.372 0 00-4.366-1.893c-4.1.126-7.358 3.4-7.358 7.395 0 3.995 3.257 7.269 7.358 7.395A5.372 5.372 0 0092.63 27.5v1.33a2.86 2.86 0 01-.92 2.349 3.03 3.03 0 01-2.458.767c-1.418.14-2.776-.59-3.409-1.834l-3.826 2.154c1.497 2.376 4.231 3.738 7.085 3.53 3.976 0 7.894-2.068 7.894-6.96zM90.5 18.636c1.35.592 2.193 1.924 2.131 3.364a3.25 3.25 0 01-1.038 2.472 3.436 3.436 0 01-2.578.91c-1.48.002-2.813-.873-3.366-2.21a3.464 3.464 0 01.85-3.865 3.698 3.698 0 014.001-.671zm13.905-3.494c-2.96 1.204-4.882 4.027-4.87 7.15a7.53 7.53 0 002.306 5.463 7.947 7.947 0 005.618 2.223c3.208 0 6.099-1.883 7.324-4.77 1.224-2.888.541-6.209-1.732-8.413-2.273-2.205-5.686-2.857-8.646-1.653zm2.991 3.894c1.887-.034 3.45 1.42 3.502 3.257a3.219 3.219 0 01-.945 2.455 3.4 3.4 0 01-2.494.987c-1.887 0-3.422-1.48-3.44-3.319-.017-1.838 1.489-3.346 3.377-3.38zm11.74-10.346a2.621 2.621 0 00-1.662 2.422c.015 1.441 1.211 2.606 2.691 2.62 1.089 0 2.07-.638 2.487-1.617a2.571 2.571 0 00-.584-2.856 2.743 2.743 0 00-2.932-.568zm3.278 6.323h-4.487l-.006 14.56h4.493v-14.56zm17.434 12.569a7.196 7.196 0 001.932-5.29 7.198 7.198 0 00-1.931-5.29 7.587 7.587 0 00-5.215-2.396 5.688 5.688 0 00-4.453 1.775v-1.368h-4.485v20.381h4.485v-7.192a5.686 5.686 0 004.453 1.776 7.59 7.59 0 005.214-2.396zm-6.169-8.667c1.953-.032 3.567 1.476 3.616 3.378a3.273 3.273 0 01-.961 2.551 3.465 3.465 0 01-2.596 1c-1.953 0-3.541-1.533-3.558-3.435-.016-1.903 1.545-3.462 3.499-3.494z" fill="#19191B"/><path d="M155.62 25.203c0 3.349-2.988 4.775-6.217 4.775-2.669.235-5.216-1.137-6.429-3.465l3.886-2.154c.324 1.083 1.381 1.8 2.537 1.718 1.075 0 1.614-.321 1.614-.902 0-1.603-7.356-.757-7.356-5.794 0-3.175 2.752-4.775 5.861-4.775 2.381-.073 4.614 1.12 5.829 3.115l-3.826 2.009a2.173 2.173 0 00-2.003-1.281c-.777 0-1.256.294-1.256.814.006 1.66 7.36.553 7.36 5.94zm16.384-10.19v14.56h-4.486v-1.37a5.17 5.17 0 01-4.273 1.777c-3.02 0-5.588-2.096-5.588-6.03v-8.937h4.485v8.297a2.36 2.36 0 00.671 1.91c.5.51 1.207.78 1.93.737 1.644 0 2.78-.93 2.78-2.998v-7.941l4.481-.005zm25.717 5.619v8.939h-4.485v-8.56c0-1.456-.717-2.387-2.152-2.387-1.495 0-2.333 1.019-2.333 2.736v8.21h-4.484v-8.56c0-1.456-.717-2.386-2.153-2.386-1.495 0-2.332 1.019-2.332 2.736v8.21h-4.485V15.013h4.485v1.338a4.642 4.642 0 014.007-1.746c1.561-.074 3.047.655 3.915 1.921 1.01-1.323 2.648-2.048 4.336-1.92 3.432 0 5.681 2.388 5.681 6.027zm3.793-5.708c1.839 0 3.329-1.451 3.329-3.242 0-1.79-1.49-3.24-3.329-3.24-1.838 0-3.328 1.45-3.328 3.24 0 1.79 1.49 3.242 3.328 3.242z" fill="#19191B"/></svg>