<svg width="205" height="41" viewBox="0 0 205 41" fill="none" xmlns="http://www.w3.org/2000/svg">
<path d="M30.7299 18.1927C29.5712 19.3279 28.9922 20.9069 29.1503 22.5001L29.1232 22.4736C29.2857 24.3484 28.5912 26.1977 27.225 27.5281C25.8588 28.8585 23.9599 29.5348 22.0346 29.3765L22.0618 29.403C19.7308 29.1917 17.514 30.4265 16.5192 32.4902C15.5244 34.554 15.9653 37.0036 17.6214 38.6149C19.2776 40.2262 21.7934 40.6533 23.9117 39.6827C26.0301 38.7121 27.296 36.5522 27.0769 34.2824L27.1056 34.3089C26.9431 32.4341 27.6376 30.5848 29.0038 29.2544C30.3699 27.924 32.2689 27.2477 34.1941 27.4059L34.1655 27.3795C36.7273 27.6038 39.1112 26.0827 39.9226 23.7057C40.734 21.3287 39.7599 18.7205 37.57 17.4065C35.3801 16.0925 32.5497 16.4181 30.7345 18.1927H30.7299Z" fill="#5454D4"/>
<path d="M19.5897 25.9353L19.561 25.9088C21.198 26.0695 22.8226 25.5057 23.9865 24.3732C25.1504 23.2407 25.7305 21.659 25.5668 20.0647L25.5955 20.0912C25.4329 18.2164 26.1274 16.3671 27.4936 15.0367C28.8598 13.7063 30.7587 13.03 32.684 13.1883L32.6553 13.1618C34.9865 13.375 37.2046 12.1416 38.2009 10.0781C39.1973 8.01466 38.7577 5.56436 37.102 3.95204C35.4464 2.33971 32.9302 1.91168 30.8113 2.8819C28.6923 3.85212 27.4258 6.01219 27.6447 8.28237L27.6175 8.25443C27.7806 10.1294 27.0863 11.979 25.72 13.3095C24.3537 14.6401 22.4544 15.3162 20.529 15.1574L20.5562 15.1853C18.9191 15.0247 17.2945 15.5884 16.1307 16.721C14.9668 17.8535 14.3867 19.4351 14.5504 21.0294L14.5232 21.003C14.6852 22.8777 13.9906 24.7266 12.6245 26.0569C11.2585 27.3872 9.35981 28.0636 7.43471 27.9059L7.46189 27.9324C5.13067 27.7192 2.91253 28.9526 1.91623 31.016C0.919928 33.0795 1.35947 35.5298 3.01514 37.1421C4.67081 38.7544 7.18698 39.1825 9.30592 38.2123C11.4249 37.242 12.6914 35.082 12.4725 32.8118L12.5012 32.8383C12.3387 30.9634 13.0331 29.1142 14.3993 27.7837C15.7655 26.4533 17.6645 25.7771 19.5897 25.9353Z" fill="#FF7143"/>
<path d="M9.46889 22.9839C10.6277 21.8488 11.2063 20.2696 11.047 18.6765L11.0757 18.703C10.913 16.8276 11.6079 14.9778 12.9747 13.6473C14.3416 12.3167 16.2415 11.6409 18.1672 11.8001L18.1385 11.7736C20.4689 11.9862 22.686 10.7529 23.6817 8.6901C24.6774 6.62729 24.2379 4.17796 22.5828 2.56623C20.9277 0.954501 18.4126 0.526496 16.2943 1.49612C14.176 2.46575 12.9096 4.62478 13.1279 6.89417L13.1007 6.8677C13.2633 8.74254 12.5688 10.5918 11.2026 11.9222C9.83642 13.2526 7.93745 13.9289 6.01221 13.7706L6.03939 13.7971C3.47762 13.5734 1.09429 15.095 0.283333 17.4719C-0.527626 19.8489 0.446806 22.4569 2.63671 23.7705C4.82662 25.0842 7.65678 24.7585 9.47191 22.9839H9.46889Z" fill="#5454D4"/>
<path d="M56.248 8.31628H60.7331V29.5707H56.248V8.31628Z" fill="#19191B"/>
<path fill-rule="evenodd" clip-rule="evenodd" d="M68.1424 15.1419C65.1826 16.3459 63.2602 19.169 63.2731 22.2927C63.2575 24.3409 64.0884 26.3092 65.5787 27.7547C67.0689 29.2001 69.0935 30.0013 71.1967 29.978C74.4044 29.978 77.2956 28.0946 78.5201 25.2075C79.7447 22.3204 79.0609 18.9991 76.7882 16.7947C74.5155 14.5904 71.1022 13.9378 68.1424 15.1419ZM71.133 19.0359C73.0202 19.0019 74.583 20.4552 74.6352 22.2926C74.6862 23.2035 74.3436 24.0937 73.6905 24.7476C73.0373 25.4015 72.1331 25.7596 71.1967 25.7353C69.3091 25.7354 67.7741 24.2544 67.7566 22.4163C67.7391 20.5783 69.2458 19.0698 71.133 19.0359Z" fill="#19191B"/>
<path fill-rule="evenodd" clip-rule="evenodd" d="M96.9957 28.8368V15.0133L92.6299 15.0104V16.4956C91.5649 15.2266 89.9452 14.5244 88.2641 14.603C84.1635 14.7289 80.9062 18.0026 80.9062 21.9979C80.9062 25.9932 84.1635 29.2668 88.2641 29.3927C89.9452 29.4713 91.5649 28.7691 92.6299 27.5001V28.8309C92.705 29.709 92.3662 30.5728 91.7092 31.1786C91.0521 31.7844 90.148 32.0666 89.2518 31.9456C87.8341 32.0866 86.4755 31.3556 85.8434 30.1118L82.0168 32.2662C83.5139 34.6416 86.2482 36.0037 89.1023 35.7956C93.0784 35.7956 96.9957 33.728 96.9957 28.8368ZM90.5002 18.6356C91.8494 19.2281 92.6931 20.56 92.6314 22C92.6593 22.9299 92.2822 23.8279 91.5932 24.4722C90.9042 25.1165 89.9676 25.4472 89.0147 25.3824C87.5346 25.3841 86.2022 24.5093 85.6488 23.1726C85.0955 21.8358 85.4324 20.3057 86.4999 19.3073C87.5674 18.309 89.151 18.0431 90.5002 18.6356Z" fill="#19191B"/>
<path fill-rule="evenodd" clip-rule="evenodd" d="M104.405 15.1419C101.445 16.3459 99.5228 19.169 99.5357 22.2927C99.5201 24.3409 100.351 26.3092 101.841 27.7547C103.332 29.2001 105.356 30.0013 107.459 29.978C110.667 29.978 113.558 28.0946 114.783 25.2075C116.007 22.3204 115.324 18.9991 113.051 16.7947C110.778 14.5904 107.365 13.9378 104.405 15.1419ZM107.396 19.0359C109.283 19.0019 110.846 20.4552 110.898 22.2926C110.949 23.2035 110.606 24.0937 109.953 24.7476C109.3 25.4015 108.396 25.7596 107.459 25.7353C105.572 25.7354 104.037 24.2544 104.019 22.4163C104.002 20.5783 105.508 19.0698 107.396 19.0359Z" fill="#19191B"/>
<path fill-rule="evenodd" clip-rule="evenodd" d="M119.136 8.69077C118.13 9.09639 117.474 10.0519 117.474 11.1119C117.489 12.5532 118.685 13.7181 120.165 13.7325C121.254 13.7325 122.235 13.094 122.652 12.1147C123.068 11.1355 122.838 10.0083 122.068 9.25884C121.299 8.50936 120.141 8.28515 119.136 8.69077ZM122.414 15.0133H117.927L117.921 29.5721H122.414V15.0133Z" fill="#19191B"/>
<path fill-rule="evenodd" clip-rule="evenodd" d="M139.848 27.5823C141.189 26.1398 141.885 24.236 141.78 22.2927C141.885 20.349 141.19 18.4446 139.849 17.0016C138.508 15.5587 136.631 14.6964 134.634 14.6059C132.951 14.5165 131.316 15.1682 130.181 16.3809V15.0133H125.696V35.3941H130.181V28.2015C131.316 29.4151 132.951 30.0674 134.634 29.978C136.63 29.8871 138.507 29.0249 139.848 27.5823ZM133.679 18.9152C135.632 18.8833 137.246 20.391 137.295 22.2926C137.363 23.2377 137.013 24.1659 136.334 24.8442C135.654 25.5224 134.71 25.8862 133.738 25.8441C131.785 25.8443 130.197 24.3108 130.18 22.4086C130.164 20.5064 131.725 18.947 133.679 18.9152Z" fill="#19191B"/>
<path d="M155.62 25.203C155.62 28.5516 152.632 29.978 149.403 29.978C146.734 30.2135 144.187 28.8408 142.974 26.5133L146.86 24.3589C147.184 25.4425 148.241 26.1583 149.397 26.0766C150.472 26.0766 151.011 25.756 151.011 25.1751C151.011 23.5722 143.655 24.4177 143.655 19.381C143.655 16.206 146.407 14.606 149.516 14.606C151.897 14.5326 154.13 15.7259 155.345 17.7207L151.519 19.7295C151.176 18.9499 150.387 18.4456 149.516 18.4486C148.739 18.4486 148.26 18.7427 148.26 19.2633C148.266 20.9236 155.62 19.8163 155.62 25.203Z" fill="#19191B"/>
<path d="M172.004 15.0133V29.5721H167.518V28.203C166.469 29.4285 164.88 30.0892 163.245 29.9795C160.225 29.9795 157.657 27.8839 157.657 23.9501V15.0133H162.142V23.3104C162.066 24.0122 162.312 24.711 162.813 25.2209C163.313 25.7308 164.02 26.0002 164.743 25.9574C166.387 25.9574 167.523 25.0265 167.523 22.9589V15.0177L172.004 15.0133Z" fill="#19191B"/>
<path d="M197.721 20.6324V29.5706H193.236V21.0104C193.236 19.5545 192.519 18.6236 191.084 18.6236C189.589 18.6236 188.751 19.6427 188.751 21.3604V29.5706H184.267V21.0104C184.267 19.5545 183.55 18.6236 182.114 18.6236C180.619 18.6236 179.782 19.6427 179.782 21.3604V29.5706H175.297V15.0118H179.782V16.3501C180.727 15.1437 182.235 14.4864 183.789 14.6045C185.35 14.5301 186.836 15.2593 187.704 16.5251C188.714 15.2018 190.352 14.4765 192.04 14.6045C195.472 14.6059 197.721 16.9927 197.721 20.6324Z" fill="#19191B"/>
<path d="M201.514 14.9236C203.353 14.9236 204.843 13.4725 204.843 11.6825C204.843 9.89241 203.353 8.44128 201.514 8.44128C199.676 8.44128 198.186 9.89241 198.186 11.6825C198.186 13.4725 199.676 14.9236 201.514 14.9236Z" fill="#19191B"/>
</svg>
